<svg id="visual" viewBox="0 0 900 600" width="900" height="600" xmlns="http://www.w3.org/2000/svg" xmlns:xlink="http://www.w3.org/1999/xlink" version="1.1"><rect x="0" y="0" width="900" height="600" fill="#140021"></rect><path d="M0 305L64 305L64 266L129 266L129 355L193 355L193 460L257 460L257 377L321 377L321 268L386 268L386 467L450 467L450 413L514 413L514 421L579 421L579 279L643 279L643 454L707 454L707 350L771 350L771 322L836 322L836 441L900 441L900 341L900 601L900 601L836 601L836 601L771 601L771 601L707 601L707 601L643 601L643 601L579 601L579 601L514 601L514 601L450 601L450 601L386 601L386 601L321 601L321 601L257 601L257 601L193 601L193 601L129 601L129 601L64 601L64 601L0 601Z" fill="#9900ff"></path><path d="M0 315L64 315L64 463L129 463L129 389L193 389L193 405L257 405L257 403L321 403L321 411L386 411L386 328L450 328L450 404L514 404L514 361L579 361L579 425L643 425L643 374L707 374L707 491L771 491L771 363L836 363L836 348L900 348L900 389L900 601L900 601L836 601L836 601L771 601L771 601L707 601L707 601L643 601L643 601L579 601L579 601L514 601L514 601L450 601L450 601L386 601L386 601L321 601L321 601L257 601L257 601L193 601L193 601L129 601L129 601L64 601L64 601L0 601Z" fill="#7700c6"></path><path d="M0 390L64 390L64 438L129 438L129 430L193 430L193 468L257 468L257 461L321 461L321 459L386 459L386 410L450 410L450 482L514 482L514 430L579 430L579 487L643 487L643 492L707 492L707 370L771 370L771 375L836 375L836 461L900 461L900 415L900 601L900 601L836 601L836 601L771 601L771 601L707 601L707 601L643 601L643 601L579 601L579 601L514 601L514 601L450 601L450 601L386 601L386 601L321 601L321 601L257 601L257 601L193 601L193 601L129 601L129 601L64 601L64 601L0 601Z" fill="#560090"></path><path d="M0 491L64 491L64 511L129 511L129 518L193 518L193 418L257 418L257 461L321 461L321 500L386 500L386 444L450 444L450 522L514 522L514 488L579 488L579 519L643 519L643 518L707 518L707 539L771 539L771 414L836 414L836 486L900 486L900 505L900 601L900 601L836 601L836 601L771 601L771 601L707 601L707 601L643 601L643 601L579 601L579 601L514 601L514 601L450 601L450 601L386 601L386 601L321 601L321 601L257 601L257 601L193 601L193 601L129 601L129 601L64 601L64 601L0 601Z" fill="#560090"></path><path d="M0 550L64 550L64 547L129 547L129 535L193 535L193 516L257 516L257 517L321 517L321 504L386 504L386 476L450 476L450 520L514 520L514 488L579 488L579 557L643 557L643 470L707 470L707 487L771 487L771 542L836 542L836 549L900 549L900 461L900 601L900 601L836 601L836 601L771 601L771 601L707 601L707 601L643 601L643 601L579 601L579 601L514 601L514 601L450 601L450 601L386 601L386 601L321 601L321 601L257 601L257 601L193 601L193 601L129 601L129 601L64 601L64 601L0 601Z" fill="#7700c6"></path><path d="M0 513L64 513L64 532L129 532L129 583L193 583L193 574L257 574L257 529L321 529L321 553L386 553L386 539L450 539L450 532L514 532L514 530L579 530L579 574L643 574L643 509L707 509L707 511L771 511L771 563L836 563L836 532L900 532L900 576L900 601L900 601L836 601L836 601L771 601L771 601L707 601L707 601L643 601L643 601L579 601L579 601L514 601L514 601L450 601L450 601L386 601L386 601L321 601L321 601L257 601L257 601L193 601L193 601L129 601L129 601L64 601L64 601L0 601Z" fill="#9900ff"></path></svg>