<!-- /images/icons/actions.svg -->
<svg xmlns="http://www.w3.org/2000/svg" style="display:none">
  <!-- Trash / Eliminar -->
  <symbol id="icon-trash-2" viewBox="0 0 24 24">
    <path fill="none" stroke="currentColor" stroke-width="2"
          d="M3 6h18"/>
    <path fill="none" stroke="currentColor" stroke-width="2"
          d="M19 6v14c0 1-1 2-2 2H7c-1 0-2-1-2-2V6"/>
    <path fill="none" stroke="currentColor" stroke-width="2"
          d="M8 6V4c0-1 1-2 2-2h4c1 0 2 1 2 2v2"/>
    <line x1="10" y1="11" x2="10" y2="17" stroke="currentColor" stroke-width="2"/>
    <line x1="14" y1="11" x2="14" y2="17" stroke="currentColor" stroke-width="2"/>
  </symbol>

  <!-- Save / Guardar -->
  <symbol id="icon-save" viewBox="0 0 24 24">
    <path fill="none" stroke="currentColor" stroke-width="2"
          d="M19 21H5a2 2 0 0 1-2-2V5a2 2 0 0 1 2-2h11l5 5v11a2 2 0 0 1-2 2z"/>
    <polyline fill="none" stroke="currentColor" stroke-width="2"
              points="17 21 17 13 7 13 7 21"/>
    <polyline fill="none" stroke="currentColor" stroke-width="2"
              points="7 3 7 8 15 8"/>
  </symbol>
</svg>
